<svg width="3193" height="578" viewBox="0 0 3193 578" fill="none" xmlns="http://www.w3.org/2000/svg">
<g clip-path="url(#clip0_8943_63334)">
<path d="M433.391 300.901C442.23 285.846 464.181 285.846 472.923 300.901L566.848 461.36C575.687 476.415 564.614 495.161 547.033 495.161H359.184C341.603 495.161 330.627 476.415 339.369 461.36L433.294 300.901H433.391Z" fill="#FF394A"/>
<path d="M376.659 194.055C385.206 179.097 385.206 160.642 376.659 145.587L299.635 11.2562C290.99 -3.79895 269.427 -3.79895 260.783 11.2562L2.99918 461.26C-5.6454 476.315 5.13604 495.158 22.4252 495.158H176.376C193.568 495.158 209.401 485.931 217.948 470.973L376.562 194.055H376.659Z" fill="#FF394A"/>
<path d="M909.434 457.667V495.159H887.094C860.383 495.159 850.379 483.601 849.99 463.98C836.392 483.892 815.218 497.49 783.359 497.49C739.068 497.49 708.277 475.539 708.277 437.658C708.277 395.309 738.193 372.192 794.917 372.192H845.619V359.857C845.619 337.128 829.302 323.142 801.328 323.142C776.171 323.142 759.465 335.089 756.26 353.058H713.522C718.282 313.526 751.792 288.369 803.368 288.369C854.944 288.369 888.357 314.303 888.357 362.577V444.36C888.357 454.753 891.95 457.57 901.081 457.57H909.434V457.667ZM845.619 404.148H792.975C766.653 404.148 751.889 414.153 751.889 434.841C751.889 452.033 766.264 463.98 789.381 463.98C824.542 463.98 845.619 442.806 845.619 412.113V404.148Z" fill="white"/>
<path d="M1003.25 495.159L925.836 290.797H972.167L1030.45 448.828L1088.33 290.797H1133.79L1055.99 495.159H1003.35H1003.25Z" fill="white"/>
<path d="M1353.91 457.667V495.159H1331.57C1304.86 495.159 1294.86 483.601 1294.47 463.98C1280.87 483.892 1259.7 497.49 1227.84 497.49C1183.55 497.49 1152.76 475.539 1152.76 437.658C1152.76 395.309 1182.67 372.192 1239.4 372.192H1290.1V359.857C1290.1 337.128 1273.78 323.142 1245.81 323.142C1220.65 323.142 1203.95 335.089 1200.74 353.058H1158C1162.76 313.526 1196.27 288.369 1247.85 288.369C1299.42 288.369 1332.84 314.303 1332.84 362.577V444.36C1332.84 454.753 1336.43 457.57 1345.56 457.57H1353.91V457.667ZM1290 404.148H1237.36C1211.04 404.148 1196.27 414.153 1196.27 434.841C1196.27 452.033 1210.65 463.98 1233.76 463.98C1268.93 463.98 1290 442.806 1290 412.113V404.148Z" fill="white"/>
<path d="M1551.26 457.285V495.166H1385.27V457.285H1446.94V256.42L1385.27 276.817V238.742L1438.01 218.539H1490.07V457.382H1551.36L1551.26 457.285Z" fill="white"/>
<path d="M1781.18 457.667V495.159H1758.84C1732.13 495.159 1722.12 483.601 1721.74 463.98C1708.14 483.892 1686.96 497.49 1655.1 497.49C1610.81 497.49 1580.02 475.539 1580.02 437.658C1580.02 395.309 1609.94 372.192 1666.66 372.192H1717.37V359.857C1717.37 337.128 1701.05 323.142 1673.07 323.142C1647.92 323.142 1631.21 335.089 1628.01 353.058H1585.27C1590.03 313.526 1623.54 288.369 1675.11 288.369C1726.69 288.369 1760.1 314.303 1760.1 362.577V444.36C1760.1 454.753 1763.7 457.57 1772.83 457.57H1781.18V457.667ZM1717.37 404.148H1664.72C1638.4 404.148 1623.63 414.153 1623.63 434.841C1623.63 452.033 1638.01 463.98 1661.13 463.98C1696.29 463.98 1717.37 442.806 1717.37 412.113V404.148Z" fill="white"/>
<path d="M2011.97 378.603V495.159H1968.45V382.585C1968.45 346.259 1952.91 326.347 1922.12 326.347C1889.78 326.347 1870.25 349.853 1870.25 389.384V495.159H1827.13V290.797H1864.62L1869.38 317.508C1881.72 301.579 1900.95 288.369 1932.03 288.369C1975.54 288.369 2011.87 311.875 2011.87 378.603H2011.97Z" fill="white"/>
<path d="M2064.9 393.367C2064.9 330.329 2105.21 288.369 2166.69 288.369C2218.95 288.369 2251.68 317.508 2259.65 363.839H2214.58C2208.95 339.848 2191.85 325.084 2165.92 325.084C2131.63 325.084 2108.8 353.446 2108.8 393.367C2108.8 433.287 2131.53 460.775 2165.92 460.775C2191.46 460.775 2209.04 445.623 2214.19 422.02H2259.65C2252.07 468.351 2217.3 497.49 2165.43 497.49C2103.95 497.49 2064.8 457.181 2064.8 393.367H2064.9Z" fill="white"/>
<path d="M2498.28 378.605V495.161H2454.76V382.198C2454.76 347.037 2439.22 326.349 2407.27 326.349C2375.31 326.349 2354.62 350.34 2354.62 388.997V495.161H2311.5V215.814H2354.62V316.83C2368.61 299.249 2389.78 288.468 2417.27 288.468C2465.16 288.468 2498.28 316.83 2498.28 378.702V378.605Z" fill="white"/>
<path d="M2594.34 402.987V405.027C2595.51 439.702 2617.07 462.528 2650.58 462.528C2676.13 462.528 2695.65 449.318 2701.28 426.59H2744.41C2737.22 466.899 2703.32 497.592 2653.01 497.592C2589.19 497.592 2549.27 456.117 2549.27 393.468C2549.27 330.819 2589.19 288.471 2648.64 288.471C2708.08 288.471 2746.84 325.963 2748 385.892C2748 390.263 2747.61 397.062 2746.84 403.084H2594.34V402.987ZM2595.9 370.643H2703.22C2699.63 340.338 2678.85 323.146 2648.93 323.146C2622.22 323.146 2599 341.504 2595.8 370.643H2595.9Z" fill="white"/>
</g>
<defs>
<clipPath id="clip0_8943_63334">
<rect width="3192.03" height="578" fill="white"/>
</clipPath>
</defs>
</svg>
