<svg width="329" height="355" viewBox="0 0 329 355" fill="none" xmlns="http://www.w3.org/2000/svg">
<g opacity="0.3">
<path d="M93.5 52C93.5 63.8741 83.8741 73.5 72 73.5C60.1259 73.5 50.5 63.8741 50.5 52C50.5 40.1259 60.1259 30.5 72 30.5C83.8741 30.5 93.5 40.1259 93.5 52Z" fill="black" fill-opacity="0.9" stroke="url(#paint0_linear_96_663)"/>
<path d="M66.8193 49.4082H63.1173C62.7084 49.4082 62.377 49.7397 62.377 50.1486V53.8505C62.377 54.2594 62.7084 54.5909 63.1173 54.5909H66.8193C67.2282 54.5909 67.5596 54.2594 67.5596 53.8505V50.1486C67.5596 49.7397 67.2282 49.4082 66.8193 49.4082Z" stroke="#D54747" stroke-linecap="round" stroke-linejoin="round"/>
<path d="M80.1436 43.8552H75.7013C75.2924 43.8552 74.9609 44.1867 74.9609 44.5956V49.0379C74.9609 49.4468 75.2924 49.7783 75.7013 49.7783H80.1436C80.5525 49.7783 80.884 49.4468 80.884 49.0379V44.5956C80.884 44.1867 80.5525 43.8552 80.1436 43.8552Z" stroke="#D54747" stroke-linecap="round" stroke-linejoin="round"/>
<path d="M80.1436 54.2207H75.7013C75.2924 54.2207 74.9609 54.5522 74.9609 54.9611V59.4034C74.9609 59.8123 75.2924 60.1438 75.7013 60.1438H80.1436C80.5525 60.1438 80.884 59.8123 80.884 59.4034V54.9611C80.884 54.5522 80.5525 54.2207 80.1436 54.2207Z" stroke="#D54747" stroke-linecap="round" stroke-linejoin="round"/>
<path d="M67.5566 51.9993H71.2586" stroke="#D54747" stroke-linecap="round" stroke-linejoin="round"/>
<path d="M74.9617 57.1818H73.4809C73.1889 57.183 72.8995 57.1264 72.6295 57.0152C72.3595 56.904 72.1141 56.7405 71.9076 56.534C71.7011 56.3275 71.5376 56.0821 71.4264 55.8121C71.3152 55.5421 71.2586 55.2527 71.2598 54.9607V49.0376C71.2586 48.7456 71.3152 48.4562 71.4264 48.1861C71.5376 47.9161 71.7011 47.6708 71.9076 47.4643C72.1141 47.2578 72.3595 47.0942 72.6295 46.983C72.8995 46.8718 73.1889 46.8152 73.4809 46.8164H74.9617" stroke="#D54747" stroke-linecap="round" stroke-linejoin="round"/>
</g>
<path opacity="0.1" d="M253.5 13C253.5 16.5899 250.59 19.5 247 19.5C243.41 19.5 240.5 16.5899 240.5 13C240.5 9.41015 243.41 6.5 247 6.5C250.59 6.5 253.5 9.41015 253.5 13Z" fill="black" fill-opacity="0.6" stroke="url(#paint1_linear_96_663)"/>
<g opacity="0.4">
<path d="M295.5 294C295.5 308.083 284.083 319.5 270 319.5C255.917 319.5 244.5 308.083 244.5 294C244.5 279.917 255.917 268.5 270 268.5C284.083 268.5 295.5 279.917 295.5 294Z" fill="black" fill-opacity="0.6" stroke="url(#paint2_linear_96_663)"/>
<path d="M266 286C260 286 266 294.5 260 294.5C266 294.5 260 303 266 303" stroke="#C43D3D" stroke-linecap="round" stroke-linejoin="round"/>
<path d="M275 286C281 286 275 294.5 281 294.5C275 294.5 281 303 275 303" stroke="#C43D3D" stroke-linecap="round" stroke-linejoin="round"/>
</g>
<g opacity="0.4">
<path d="M24.5 342.5C24.5 349.127 19.1274 354.5 12.5 354.5C5.87258 354.5 0.5 349.127 0.5 342.5C0.5 335.873 5.87258 330.5 12.5 330.5C19.1274 330.5 24.5 335.873 24.5 342.5Z" fill="black" fill-opacity="0.6" stroke="url(#paint3_linear_96_663)"/>
<path d="M10.576 338.654C7.69141 338.654 10.576 342.74 7.69141 342.74C10.576 342.74 7.69141 346.827 10.576 346.827" stroke="#C43D3D" stroke-linecap="round" stroke-linejoin="round"/>
<path d="M14.9043 338.654C17.7889 338.654 14.9043 342.74 17.7889 342.74C14.9043 342.74 17.7889 346.827 14.9043 346.827" stroke="#C43D3D" stroke-linecap="round" stroke-linejoin="round"/>
</g>
<path d="M259.5 5C259.5 7.48528 257.485 9.5 255 9.5C252.515 9.5 250.5 7.48528 250.5 5C250.5 2.51472 252.515 0.5 255 0.5C257.485 0.5 259.5 2.51472 259.5 5Z" fill="#211A20" stroke="#591A1B"/>
<path d="M328.5 243.5C328.5 245.709 326.709 247.5 324.5 247.5C322.291 247.5 320.5 245.709 320.5 243.5C320.5 241.291 322.291 239.5 324.5 239.5C326.709 239.5 328.5 241.291 328.5 243.5Z" fill="#2B1C22" stroke="#591A1B"/>
<circle cx="159" cy="152" r="98.5" fill="black" fill-opacity="0.05" stroke="url(#paint4_linear_96_663)"/>
<circle cx="159" cy="152" r="128.5" fill="black" fill-opacity="0.05" stroke="url(#paint5_linear_96_663)"/>
<path d="M250 152C250 202.258 209.258 243 159 243C108.742 243 68 202.258 68 152C68 101.742 108.742 61 159 61C209.258 61 250 101.742 250 152Z" fill="black" fill-opacity="0.2" stroke="url(#paint6_linear_96_663)" stroke-width="2"/>
<path d="M138 138.875L122.25 152L138 165.125" stroke="url(#paint7_linear_96_663)" stroke-width="3" stroke-linecap="round" stroke-linejoin="round"/>
<path d="M180 138.875L195.75 152L180 165.125" stroke="url(#paint8_linear_96_663)" stroke-width="3" stroke-linecap="round" stroke-linejoin="round"/>
<path d="M169.5 123.125L148.5 180.875" stroke="url(#paint9_linear_96_663)" stroke-width="3" stroke-linecap="round" stroke-linejoin="round"/>
<path d="M38.5 173C38.5 176.59 35.5899 179.5 32 179.5C28.4101 179.5 25.5 176.59 25.5 173C25.5 169.41 28.4101 166.5 32 166.5C35.5899 166.5 38.5 169.41 38.5 173Z" fill="#2B1C22" stroke="url(#paint10_linear_96_663)"/>
<defs>
<linearGradient id="paint0_linear_96_663" x1="72" y1="30" x2="72" y2="74" gradientUnits="userSpaceOnUse">
<stop stop-color="#FF5455" stop-opacity="0.71"/>
<stop offset="0.489583" stop-color="#F56264" stop-opacity="0.69"/>
<stop offset="1" stop-color="#FFCDCE" stop-opacity="0.62"/>
</linearGradient>
<linearGradient id="paint1_linear_96_663" x1="247" y1="6" x2="247" y2="20" gradientUnits="userSpaceOnUse">
<stop stop-color="#AE3D3E" stop-opacity="0.71"/>
<stop offset="0.489583" stop-color="#9A4041" stop-opacity="0.69"/>
<stop offset="1" stop-color="#4F3737" stop-opacity="0.62"/>
</linearGradient>
<linearGradient id="paint2_linear_96_663" x1="270" y1="268" x2="270" y2="320" gradientUnits="userSpaceOnUse">
<stop stop-color="#FF5455" stop-opacity="0.71"/>
<stop offset="0.489583" stop-color="#F56264" stop-opacity="0.69"/>
<stop offset="1" stop-color="#FFCDCE" stop-opacity="0.62"/>
</linearGradient>
<linearGradient id="paint3_linear_96_663" x1="12.5" y1="330" x2="12.5" y2="355" gradientUnits="userSpaceOnUse">
<stop stop-color="#FF5455" stop-opacity="0.71"/>
<stop offset="0.489583" stop-color="#F56264" stop-opacity="0.69"/>
<stop offset="1" stop-color="#FFCDCE" stop-opacity="0.62"/>
</linearGradient>
<linearGradient id="paint4_linear_96_663" x1="159" y1="53" x2="159" y2="251" gradientUnits="userSpaceOnUse">
<stop stop-color="#FF393C" stop-opacity="0"/>
<stop offset="0.484921" stop-color="#5C191A"/>
<stop offset="1" stop-color="#602829" stop-opacity="0.32"/>
</linearGradient>
<linearGradient id="paint5_linear_96_663" x1="159" y1="23" x2="159" y2="281" gradientUnits="userSpaceOnUse">
<stop stop-color="#5C191A" stop-opacity="0"/>
<stop offset="0.484921" stop-color="#5C191A"/>
<stop offset="1" stop-color="#5C191A" stop-opacity="0.32"/>
</linearGradient>
<linearGradient id="paint6_linear_96_663" x1="159" y1="60" x2="159" y2="244" gradientUnits="userSpaceOnUse">
<stop stop-color="#E74142" stop-opacity="0.34"/>
<stop offset="0.489583" stop-color="#FF4548" stop-opacity="0.520833"/>
<stop offset="1" stop-color="white" stop-opacity="0"/>
</linearGradient>
<linearGradient id="paint7_linear_96_663" x1="130.125" y1="138.875" x2="130.125" y2="165.125" gradientUnits="userSpaceOnUse">
<stop stop-color="#922529"/>
<stop offset="1" stop-color="#9F8C8D"/>
</linearGradient>
<linearGradient id="paint8_linear_96_663" x1="187.875" y1="138.875" x2="187.875" y2="165.125" gradientUnits="userSpaceOnUse">
<stop stop-color="#922529"/>
<stop offset="1" stop-color="#9F8C8D"/>
</linearGradient>
<linearGradient id="paint9_linear_96_663" x1="159" y1="123.125" x2="159" y2="180.875" gradientUnits="userSpaceOnUse">
<stop stop-color="#922529"/>
<stop offset="1" stop-color="#9F8C8D"/>
</linearGradient>
<linearGradient id="paint10_linear_96_663" x1="32" y1="166" x2="32" y2="180" gradientUnits="userSpaceOnUse">
<stop stop-color="#591A1B"/>
<stop offset="1" stop-color="#521A1C"/>
</linearGradient>
</defs>
</svg>
